<svg width="14" height="14" viewBox="0 0 14 14" fill="none" xmlns="http://www.w3.org/2000/svg">
<path d="M12.1893 5.74998C12.7127 6.39267 13.0274 7.25645 13.0274 8.35834C13.0274 9.38846 12.7523 10.2105 12.2889 10.8383C12.1207 11.0661 12.1562 11.5969 12.2905 11.8461C12.6121 12.4424 12.0045 13.0958 11.3442 12.9444C10.8499 12.8311 10.3315 12.6778 9.87778 12.4721C9.71166 12.3968 9.52825 12.3665 9.34702 12.387C9.12188 12.4124 8.8921 12.425 8.65943 12.425C7.57962 12.425 6.56222 12.1538 5.78145 11.5833M9.69411 5.02501C9.69411 7.82962 7.65534 9.0917 5.32618 9.0917C5.09351 9.0917 4.86373 9.0791 4.63859 9.05363C4.45736 9.03313 4.27395 9.06351 4.10783 9.13882C3.65412 9.34449 3.13567 9.49778 2.6414 9.61109C1.98107 9.76246 1.37356 9.10902 1.69509 8.51273C1.82944 8.26358 1.86487 7.73272 1.69675 7.50498C1.2333 6.87716 0.958252 6.05513 0.958252 5.02501C0.958252 2.22039 2.99702 0.958313 5.32618 0.958313C7.65534 0.958313 9.69411 2.22039 9.69411 5.02501Z" stroke="#ADA9BB" stroke-width="1.5" stroke-linecap="round" stroke-linejoin="round"/>
</svg>
