<svg width="18" height="20" viewBox="0 0 18 20" fill="none" xmlns="http://www.w3.org/2000/svg">
<path d="M1.5 8.33335C1.5 5.19085 1.5 3.61919 2.47667 2.64335C3.45333 1.66752 5.02417 1.66669 8.16667 1.66669H9.83333C12.9758 1.66669 14.5475 1.66669 15.5233 2.64335C16.4992 3.62002 16.5 5.19085 16.5 8.33335V11.6667C16.5 14.8092 16.5 16.3809 15.5233 17.3567C14.5467 18.3325 12.9758 18.3334 9.83333 18.3334H8.16667C5.02417 18.3334 3.4525 18.3334 2.47667 17.3567C1.50083 16.38 1.5 14.8092 1.5 11.6667V8.33335Z" stroke="#ADA9BB" stroke-width="1.5"/>
<path d="M5.66663 8.33337H12.3333M5.66663 11.6667H9.83329" stroke="#ADA9BB" stroke-width="1.5" stroke-linecap="round"/>
</svg>
