<svg width="14" height="14" viewBox="0 0 14 14" fill="none" xmlns="http://www.w3.org/2000/svg">
<path d="M1.68435 9.4689L2.60169 9.61254C3.27886 9.7186 3.76246 10.3388 3.71259 11.0376L3.64501 11.9847C3.62532 12.2606 3.77231 12.5203 4.01575 12.6405L4.69423 12.9748C4.93768 13.0949 5.22836 13.0499 5.42718 12.8627L6.10895 12.2183C6.61158 11.743 7.38718 11.743 7.89047 12.2183L8.57224 12.8627C8.77106 13.0506 9.06109 13.0949 9.30519 12.9748L9.98499 12.6398C10.2278 12.5203 10.3741 12.2612 10.3544 11.986L10.2868 11.0376C10.237 10.3388 10.7206 9.7186 11.3977 9.61254L12.3151 9.4689C12.5821 9.42728 12.7974 9.22256 12.8577 8.95272L13.0251 8.20228C13.0854 7.93244 12.9785 7.65254 12.7554 7.49681L11.9896 6.9605C11.4246 6.56447 11.2521 5.7912 11.5933 5.18374L12.0559 4.3608C12.1904 4.12117 12.1681 3.82113 11.9995 3.60499L11.5303 3.0029C11.3616 2.78676 11.0808 2.69748 10.8223 2.7787L9.93512 3.05659C9.2796 3.26199 8.58077 2.91765 8.3288 2.26588L7.9889 1.38455C7.88916 1.12679 7.64572 0.957644 7.37472 0.958315L6.62274 0.960329C6.35174 0.961 6.10895 1.13149 6.01053 1.38992L5.67916 2.26118C5.42981 2.91698 4.7277 3.26401 4.07021 3.05727L3.14631 2.76729C2.88712 2.6854 2.60497 2.77535 2.43633 2.99283L1.97044 3.5956C1.80181 3.81375 1.78146 4.11446 1.91861 4.35409L2.39171 5.17904C2.74014 5.78718 2.56953 6.56782 2.00128 6.96587L1.24471 7.49614C1.02161 7.65254 0.914654 7.93244 0.975023 8.20161L1.14235 8.95205C1.20206 9.22256 1.41729 9.42728 1.68435 9.4689Z" stroke="#ADA9BB" stroke-width="1.5" stroke-linecap="round" stroke-linejoin="round"/>
<path d="M8.32593 5.67409C9.05808 6.40624 9.05808 7.59372 8.32593 8.32587C7.59379 9.05802 6.4063 9.05802 5.67415 8.32587C4.942 7.59372 4.942 6.40624 5.67415 5.67409C6.4063 4.94194 7.59379 4.94194 8.32593 5.67409Z" stroke="#ADA9BB" stroke-width="1.5" stroke-linecap="round" stroke-linejoin="round"/>
</svg>
