<svg width="18" height="19" viewBox="0 0 18 19" fill="none" xmlns="http://www.w3.org/2000/svg">
<path d="M7.33333 8.33335C9.17428 8.33335 10.6667 6.84097 10.6667 5.00002C10.6667 3.15907 9.17428 1.66669 7.33333 1.66669C5.49238 1.66669 4 3.15907 4 5.00002C4 6.84097 5.49238 8.33335 7.33333 8.33335Z" stroke="#ADA9BB" stroke-width="1.5"/>
<path d="M7.33333 17.5C10.555 17.5 13.1667 16.0077 13.1667 14.1667C13.1667 12.3258 10.555 10.8334 7.33333 10.8334C4.11167 10.8334 1.5 12.3258 1.5 14.1667C1.5 16.0077 4.11167 17.5 7.33333 17.5Z" stroke="#ADA9BB" stroke-width="1.5"/>
<path d="M14.8333 1.66669C14.8333 1.66669 16.5 2.66669 16.5 5.00002C16.5 7.33335 14.8333 8.33335 14.8333 8.33335M13.1666 3.33335C13.1666 3.33335 14 3.83335 14 5.00002C14 6.16669 13.1666 6.66669 13.1666 6.66669" stroke="#ADA9BB" stroke-width="1.5" stroke-linecap="round"/>
</svg>
